<?xml version="1.0" standalone="no"?>
<!DOCTYPE svg PUBLIC "-//W3C//DTD SVG 20010904//EN"
 "http://www.w3.org/TR/2001/REC-SVG-20010904/DTD/svg10.dtd">
<svg version="1.0" xmlns="http://www.w3.org/2000/svg"
 width="512.000000pt" height="512.000000pt" viewBox="0 0 512.000000 512.000000"
 preserveAspectRatio="xMidYMid meet">

<g transform="translate(0.000000,512.000000) scale(0.100000,-0.100000)"
fill="#000000" stroke="none">
<path d="M2460 4945 c-117 -26 -183 -68 -311 -196 -122 -123 -173 -157 -276
-184 -76 -20 -150 -19 -253 5 -205 47 -379 11 -507 -104 -101 -91 -155 -210
-172 -383 -13 -121 -39 -197 -97 -279 -52 -74 -119 -126 -217 -166 -136 -58
-228 -128 -289 -223 -111 -171 -103 -378 22 -584 56 -94 80 -174 80 -271 0
-97 -24 -177 -80 -271 -127 -209 -133 -419 -17 -590 65 -98 133 -147 320 -234
133 -62 223 -172 262 -321 8 -32 15 -76 15 -99 1 -130 63 -280 154 -371 132
-132 309 -174 526 -124 103 24 177 25 253 5 102 -27 156 -61 262 -170 161
-165 264 -218 425 -218 161 0 264 53 425 218 106 109 160 143 262 170 76 20
150 19 253 -5 217 -50 394 -8 526 124 91 91 153 241 154 371 0 23 7 67 15 99
40 152 130 260 273 327 137 63 150 71 210 119 206 165 239 440 82 699 -108
181 -108 361 0 542 127 209 133 419 17 590 -48 73 -137 148 -217 186 -30 14
-83 38 -117 55 -146 68 -262 252 -263 413 -1 130 -63 280 -154 371 -132 132
-309 174 -526 124 -214 -49 -344 -8 -510 161 -52 54 -122 116 -154 138 -107
74 -254 103 -376 76z m1060 -1766 c81 -46 104 -149 51 -230 -16 -24 -224 -238
-462 -476 -493 -491 -489 -487 -629 -487 -133 0 -151 13 -472 332 -154 152
-291 296 -305 320 -44 74 -25 164 46 217 35 27 119 32 162 10 19 -9 154 -137
301 -283 l268 -266 432 431 c238 238 444 436 458 442 43 17 110 13 150 -10z"/>
</g>
</svg>
